<svg id="svg" version="1.1" xmlns="http://www.w3.org/2000/svg" xmlns:xlink="http://www.w3.org/1999/xlink" width="400" height="328.3333333333333" viewBox="0, 0, 400,328.3333333333333"><g id="svgg"><path id="path0" d="M181.414 126.296 C 179.491 127.245,178.818 129.044,178.818 133.232 L 178.818 136.907 176.469 138.083 C 169.340 141.650,169.605 147.277,177.038 150.141 L 179.015 150.903 178.796 153.725 C 178.157 161.953,182.685 164.363,189.536 159.440 C 191.514 158.020,191.411 158.015,193.507 159.603 C 199.745 164.325,204.137 162.148,203.892 154.454 L 203.782 151.012 206.078 149.945 C 213.456 146.513,213.367 140.993,205.883 137.812 L 203.723 136.894 203.872 133.529 C 204.223 125.633,200.198 123.613,193.462 128.305 L 191.357 129.772 190.506 129.093 C 186.900 126.216,183.621 125.207,181.414 126.296 M187.134 128.737 C 187.915 129.092,188.992 129.694,189.528 130.075 L 190.502 130.769 189.255 132.133 C 188.569 132.884,187.692 133.903,187.307 134.399 C 186.735 135.136,186.134 135.392,184.026 135.795 C 180.106 136.545,180.296 136.628,180.296 134.161 C 180.296 129.092,183.069 126.893,187.134 128.737 M200.450 128.761 C 202.022 129.997,202.747 132.293,202.416 134.987 L 202.233 136.476 199.478 135.919 C 195.984 135.211,196.466 135.489,194.329 132.956 C 192.207 130.442,192.216 130.409,195.403 128.925 C 197.614 127.897,199.282 127.842,200.450 128.761 M193.076 133.215 C 194.887 135.273,194.861 135.304,191.297 135.304 C 187.681 135.304,187.695 135.323,189.725 133.263 C 191.608 131.351,191.437 131.354,193.076 133.215 M196.840 138.013 C 197.445 138.961,198.426 140.698,199.019 141.872 L 200.097 144.007 198.685 146.706 C 197.908 148.191,196.868 149.890,196.374 150.483 L 195.474 151.560 191.370 151.560 C 187.391 151.560,187.246 151.535,186.592 150.739 C 185.493 149.400,182.922 144.658,182.927 143.978 C 182.933 143.264,185.198 138.964,186.417 137.356 L 187.226 136.289 191.482 136.289 L 195.739 136.289 196.840 138.013 M185.164 137.028 C 184.979 137.740,182.440 142.189,182.215 142.195 C 181.915 142.203,180.952 139.291,180.952 138.378 C 180.952 137.633,181.224 137.499,184.072 136.845 C 185.184 136.589,185.273 136.604,185.164 137.028 M200.739 137.354 C 202.127 137.751,202.146 137.821,201.486 139.995 C 200.659 142.723,200.843 142.814,198.376 138.470 L 197.283 136.546 198.395 136.774 C 199.007 136.899,200.062 137.161,200.739 137.354 M180.468 141.135 L 181.461 144.007 180.540 146.616 C 179.398 149.851,179.625 149.685,177.630 148.750 C 173.142 146.648,172.439 142.759,176.054 140.025 C 177.044 139.275,178.851 138.305,179.310 138.274 C 179.401 138.268,179.921 139.556,180.468 141.135 M205.466 139.234 C 210.705 142.239,210.404 146.192,204.717 149.047 L 203.358 149.729 202.346 146.832 L 201.335 143.935 202.357 141.097 C 202.919 139.536,203.468 138.261,203.578 138.263 C 203.687 138.264,204.537 138.702,205.466 139.234 M189.137 141.518 C 186.780 143.876,188.757 147.912,191.974 147.309 C 195.001 146.741,195.783 142.437,193.110 141.054 C 191.585 140.266,190.232 140.424,189.137 141.518 M184.014 148.522 C 185.445 150.915,185.492 151.067,184.804 151.061 C 183.645 151.051,180.785 150.206,180.818 149.883 C 180.923 148.849,182.088 145.510,182.270 145.720 C 182.393 145.861,183.177 147.122,184.014 148.522 M201.450 147.777 C 202.121 150.169,202.074 150.264,199.981 150.712 C 197.320 151.283,197.317 151.277,198.883 148.530 C 199.678 147.135,200.328 145.870,200.328 145.719 C 200.328 144.887,200.968 146.061,201.450 147.777 M184.160 152.116 L 186.546 152.500 188.519 154.885 L 190.491 157.270 189.088 158.093 C 183.450 161.395,180.671 160.113,180.353 154.063 L 180.208 151.296 180.991 151.514 C 181.421 151.634,182.847 151.905,184.160 152.116 M202.407 152.956 C 202.922 157.140,200.943 160.169,197.926 159.811 C 196.667 159.662,193.347 158.161,192.789 157.489 C 192.297 156.896,196.289 152.388,197.340 152.349 C 197.810 152.332,199.007 152.131,200.000 151.902 C 200.993 151.673,201.898 151.466,202.010 151.441 C 202.122 151.416,202.301 152.098,202.407 152.956 M193.268 154.351 C 191.358 156.291,191.228 156.313,189.949 154.926 C 187.790 152.587,187.705 152.709,191.491 152.709 L 194.885 152.709 193.268 154.351 M165.189 264.860 L 165.189 272.906 166.995 272.906 L 168.801 272.906 168.801 270.495 L 168.801 268.083 170.434 266.706 L 172.067 265.330 174.590 269.118 L 177.113 272.906 179.380 272.906 C 181.105 272.906,181.590 272.808,181.405 272.496 C 181.271 272.270,179.762 270.164,178.052 267.816 C 174.258 262.606,174.256 263.430,178.071 259.829 L 181.265 256.814 178.811 256.814 L 176.357 256.814 172.788 260.263 C 170.825 262.159,169.125 263.711,169.010 263.711 C 168.895 263.711,168.801 262.159,168.801 260.263 L 168.801 256.814 166.995 256.814 L 165.189 256.814 165.189 264.860 M183.908 264.860 L 183.908 272.906 185.703 272.906 L 187.498 272.906 187.592 269.376 L 187.685 265.846 191.297 265.846 L 194.910 265.846 195.003 269.376 L 195.096 272.906 196.891 272.906 L 198.686 272.906 198.686 264.860 L 198.686 256.814 196.880 256.814 L 195.074 256.814 195.074 259.934 L 195.074 263.054 191.297 263.054 L 187.521 263.054 187.521 259.934 L 187.521 256.814 185.714 256.814 L 183.908 256.814 183.908 264.860 M201.314 258.128 L 201.314 259.442 203.941 259.442 L 206.568 259.442 206.568 266.174 L 206.568 272.906 208.374 272.906 L 210.181 272.906 210.181 266.174 L 210.181 259.442 212.972 259.442 L 215.764 259.442 215.764 258.128 L 215.764 256.814 208.539 256.814 L 201.314 256.814 201.314 258.128 M218.391 264.860 L 218.391 272.906 220.025 272.906 L 221.659 272.906 221.749 267.679 L 221.839 262.452 225.453 267.597 L 229.068 272.742 230.954 272.841 L 232.841 272.939 232.841 264.877 L 232.841 256.814 231.199 256.814 L 229.557 256.814 229.557 261.905 C 229.557 264.704,229.434 266.995,229.284 266.995 C 229.135 266.995,227.426 264.704,225.488 261.905 L 221.964 256.814 220.178 256.814 L 218.391 256.814 218.391 264.860 " stroke="none" fill="#f9f9fa" fill-rule="evenodd"></path><path id="path1" d="M197.650 0.240 L 196.121 0.362 191.574 6.218 C 186.363 12.930,186.782 12.896,186.394 6.634 C 186.275 4.701,186.094 2.697,185.994 2.181 L 185.810 1.242 182.971 1.475 C 181.409 1.604,180.084 1.754,180.026 1.808 C 179.967 1.863,180.407 8.068,181.003 15.597 L 182.087 29.286 185.050 29.056 C 186.680 28.930,188.052 28.792,188.099 28.750 C 188.147 28.708,188.019 26.811,187.817 24.535 L 187.448 20.398 189.270 18.251 L 191.092 16.103 193.177 19.135 C 194.323 20.803,195.661 22.759,196.149 23.481 C 196.638 24.204,197.519 25.504,198.108 26.370 L 199.179 27.945 201.314 27.756 C 205.945 27.345,206.897 27.198,206.897 26.894 C 206.897 26.583,202.375 20.563,197.560 14.463 C 195.530 11.891,195.176 11.269,195.500 10.850 C 196.395 9.695,200.429 4.851,201.091 4.137 C 202.524 2.591,203.188 1.788,203.760 0.903 L 204.345 0.000 201.762 0.059 C 200.341 0.092,198.491 0.173,197.650 0.240 M211.354 1.050 C 211.148 1.713,209.089 27.919,209.233 28.055 C 209.303 28.122,210.641 28.282,212.208 28.411 L 215.055 28.645 215.243 27.212 C 215.345 26.425,215.586 23.790,215.778 21.357 C 215.969 18.924,216.162 16.898,216.206 16.854 C 216.250 16.809,218.535 16.942,221.283 17.147 L 226.280 17.521 226.113 19.023 C 225.768 22.126,225.235 29.285,225.341 29.386 C 226.049 30.055,231.184 29.881,231.327 29.184 C 231.556 28.076,233.575 2.591,233.443 2.479 C 233.383 2.428,232.048 2.286,230.478 2.163 L 227.622 1.939 227.452 3.022 C 227.359 3.618,227.134 5.935,226.953 8.171 C 226.772 10.408,226.582 12.269,226.530 12.308 C 226.380 12.421,216.731 11.589,216.623 11.453 C 216.570 11.385,216.730 9.058,216.981 6.282 C 217.231 3.506,217.392 1.198,217.338 1.153 C 216.885 0.776,211.468 0.682,211.354 1.050 M246.129 7.520 C 237.920 11.662,235.218 24.425,241.197 30.817 C 244.889 34.764,252.396 36.241,257.386 34.002 C 265.450 30.383,268.033 16.757,261.848 10.457 C 258.172 6.712,250.552 5.288,246.129 7.520 M149.512 7.403 C 140.584 9.807,137.446 18.678,142.066 28.451 C 147.100 39.099,163.230 37.496,165.205 26.151 C 165.753 23.005,165.738 22.989,162.243 22.989 L 159.278 22.989 159.276 24.056 C 159.263 31.334,150.902 32.404,147.682 25.541 C 143.456 16.533,149.717 8.194,156.072 14.368 L 157.299 15.561 158.699 14.795 C 162.713 12.599,162.674 12.658,161.374 10.783 C 159.162 7.590,154.135 6.158,149.512 7.403 M254.304 12.178 C 262.418 14.431,259.316 30.102,250.877 29.491 C 246.313 29.161,243.406 24.771,244.672 20.123 C 246.446 13.611,249.724 10.906,254.304 12.178 M278.770 21.209 C 276.719 23.300,272.048 27.818,268.391 31.248 C 264.733 34.678,261.741 37.627,261.741 37.802 C 261.741 38.255,266.323 40.394,267.292 40.394 C 267.863 40.394,268.691 39.765,270.110 38.253 L 272.119 36.111 276.696 38.248 L 281.274 40.385 281.164 43.836 L 281.054 47.287 282.645 47.966 C 283.520 48.339,284.666 48.857,285.190 49.117 C 286.702 49.866,287.027 49.732,287.032 48.358 C 287.034 47.681,287.327 41.585,287.683 34.811 C 288.038 28.038,288.332 21.859,288.336 21.081 L 288.342 19.667 285.860 18.536 C 282.583 17.043,283.015 16.880,278.770 21.209 M120.889 18.089 C 111.785 19.877,106.042 31.308,111.087 37.603 C 111.231 37.783,111.900 38.841,112.571 39.952 C 117.858 48.699,126.916 49.421,134.598 41.708 C 138.813 37.476,138.331 28.220,133.634 23.218 C 130.812 20.213,130.214 19.684,128.944 19.069 C 126.477 17.875,123.701 17.537,120.889 18.089 M125.448 24.465 C 130.121 26.881,132.536 35.128,129.561 38.507 C 125.124 43.547,118.197 40.379,116.107 32.354 C 114.646 26.744,120.422 21.865,125.448 24.465 M282.062 30.231 C 281.642 35.164,282.013 34.812,278.817 33.313 L 276.158 32.065 279.195 29.015 C 280.865 27.338,282.272 26.005,282.321 26.054 C 282.370 26.103,282.253 27.982,282.062 30.231 M95.824 31.788 C 93.065 33.721,93.038 33.456,96.477 38.214 L 99.359 42.200 98.256 43.160 C 96.753 44.468,91.913 47.947,91.597 47.947 C 91.457 47.947,91.010 47.467,90.605 46.880 C 90.200 46.293,89.528 45.443,89.113 44.992 C 88.699 44.540,87.727 43.211,86.955 42.037 C 86.182 40.863,85.320 39.860,85.039 39.808 C 84.361 39.683,80.460 42.689,80.460 43.337 C 80.460 43.893,85.449 51.054,88.372 54.692 C 89.382 55.950,91.518 58.805,93.117 61.037 C 96.612 65.915,96.301 65.766,98.981 63.838 C 101.692 61.888,101.742 62.240,98.030 57.109 C 96.314 54.737,94.913 52.703,94.916 52.589 C 94.923 52.348,102.490 46.863,102.597 47.021 C 102.637 47.079,103.696 48.530,104.952 50.246 C 106.207 51.962,107.659 53.994,108.177 54.762 C 108.696 55.530,109.199 56.158,109.295 56.158 C 109.873 56.158,114.286 53.068,114.286 52.663 C 114.286 52.185,112.609 49.532,111.761 48.668 C 111.022 47.915,108.490 44.527,108.064 43.721 C 107.417 42.497,98.471 30.212,98.239 30.228 C 98.124 30.236,97.037 30.938,95.824 31.788 M312.618 35.207 C 312.020 35.983,310.926 37.282,310.187 38.095 C 309.449 38.908,307.797 40.977,306.516 42.693 C 305.236 44.409,302.544 47.882,300.535 50.411 C 296.275 55.772,296.328 55.540,298.911 57.553 C 301.513 59.581,301.132 59.750,305.035 54.841 C 308.727 50.199,308.672 50.237,310.039 51.314 C 310.556 51.720,312.214 53.012,313.725 54.184 L 316.471 56.316 312.915 60.750 C 308.959 65.684,309.079 65.447,310.099 66.313 C 314.182 69.777,314.111 69.753,315.271 68.122 C 315.722 67.487,319.454 62.700,323.563 57.483 C 327.672 52.267,331.034 47.920,331.034 47.823 C 331.034 47.460,326.450 43.960,326.186 44.123 C 326.035 44.216,324.589 45.997,322.972 48.081 C 321.356 50.164,319.865 51.811,319.660 51.739 C 319.117 51.550,312.315 46.228,312.315 45.993 C 312.315 45.883,313.719 43.993,315.435 41.793 C 317.151 39.592,318.549 37.676,318.542 37.533 C 318.530 37.314,314.552 34.182,313.919 33.894 C 313.802 33.841,313.217 34.432,312.618 35.207 M130.213 46.197 C 128.949 46.841,127.848 47.430,127.766 47.505 C 127.505 47.746,130.029 52.545,130.417 52.545 C 131.137 52.545,135.632 50.180,135.626 49.805 C 135.616 49.251,133.222 45.225,132.838 45.118 C 132.659 45.067,131.478 45.553,130.213 46.197 M62.962 58.712 C 61.929 59.756,61.084 60.779,61.084 60.985 C 61.084 61.278,73.640 73.376,80.079 79.288 L 81.176 80.296 83.112 78.161 C 85.544 75.478,85.609 75.817,82.020 72.508 C 80.349 70.968,76.839 67.604,74.220 65.033 C 68.883 59.792,65.593 56.814,65.142 56.814 C 64.976 56.814,63.995 57.668,62.962 58.712 M333.626 57.929 C 321.202 61.508,318.197 77.310,328.664 84.026 C 338.581 90.390,353.234 79.667,350.254 68.225 C 348.223 60.430,340.832 55.853,333.626 57.929 M341.506 64.468 C 345.792 67.304,345.807 72.255,341.544 76.519 C 336.724 81.338,331.272 81.143,328.664 76.057 C 325.430 69.750,335.608 60.565,341.506 64.468 M230.670 71.469 C 226.496 74.879,221.176 79.170,218.847 81.006 C 216.519 82.842,213.875 85.043,212.972 85.899 C 211.203 87.575,200.284 96.781,199.144 97.558 C 198.763 97.817,197.581 98.790,196.517 99.720 C 195.452 100.650,193.895 101.980,193.057 102.676 C 188.616 106.362,186.180 108.476,185.960 108.836 C 185.687 109.284,180.880 113.575,177.833 116.092 C 163.709 127.755,142.635 150.211,137.152 159.442 C 130.600 170.472,137.505 182.466,157.477 194.745 C 159.387 195.920,161.349 197.221,161.837 197.638 C 164.558 199.957,177.809 205.662,188.545 209.136 C 194.592 211.092,210.704 215.090,210.996 214.707 C 211.035 214.656,211.763 210.772,212.614 206.076 C 213.465 201.379,215.027 192.808,216.085 187.028 C 217.143 181.248,218.921 171.494,220.036 165.353 C 221.152 159.212,222.147 153.966,222.248 153.695 C 222.616 152.704,223.429 148.676,224.964 140.230 C 225.538 137.069,226.944 129.384,228.089 123.153 C 229.233 116.921,231.151 106.429,232.351 99.836 C 233.550 93.243,235.415 83.062,236.495 77.212 C 237.574 71.361,238.413 66.281,238.358 65.922 C 238.278 65.393,236.834 66.435,230.670 71.469 M49.015 74.874 C 46.873 77.680,46.806 77.102,49.882 82.400 C 51.308 84.855,52.970 87.767,53.577 88.870 C 56.871 94.864,61.622 102.781,61.928 102.786 C 62.438 102.794,65.681 98.648,65.681 97.987 C 65.681 97.679,65.006 96.344,64.180 95.019 L 62.679 92.610 64.517 90.230 C 65.528 88.920,66.792 87.332,67.326 86.700 C 67.860 86.067,68.492 85.278,68.731 84.945 C 69.149 84.362,69.266 84.371,71.956 85.191 C 75.610 86.306,75.445 86.346,77.340 83.896 C 79.705 80.840,79.902 81.096,73.824 79.324 C 70.881 78.465,64.521 76.596,59.690 75.170 C 49.329 72.112,51.085 72.161,49.015 74.874 M59.543 81.377 L 63.421 82.608 62.419 83.915 C 61.868 84.634,61.021 85.813,60.536 86.535 L 59.656 87.849 59.303 87.025 C 59.108 86.571,58.173 84.925,57.225 83.367 C 55.682 80.830,55.318 80.116,55.583 80.138 C 55.628 80.142,57.410 80.700,59.543 81.377 M320.758 81.985 C 319.712 82.997,318.899 83.933,318.952 84.064 C 319.004 84.195,319.892 85.230,320.923 86.364 L 322.799 88.425 324.782 86.521 C 327.181 84.217,327.178 84.249,325.090 81.964 C 323.041 79.722,323.097 79.722,320.758 81.985 M354.844 83.141 C 343.151 85.338,337.809 98.684,345.528 106.414 C 348.665 109.555,354.791 110.778,357.870 108.879 C 357.909 108.855,357.612 107.586,357.209 106.060 L 356.478 103.284 353.855 103.392 C 350.219 103.541,347.861 101.844,347.262 98.647 C 346.615 95.200,352.768 89.612,357.781 89.095 C 362.426 88.615,365.696 93.456,363.387 97.394 L 362.491 98.924 364.404 100.858 C 366.657 103.135,367.192 103.224,368.327 101.510 C 374.089 92.802,365.525 81.133,354.844 83.141 M71.941 93.021 C 69.893 95.585,69.887 95.490,72.222 97.324 C 74.671 99.249,74.723 99.243,76.601 96.889 C 78.547 94.448,78.571 94.636,76.062 92.639 C 73.501 90.601,73.903 90.564,71.941 93.021 M37.237 95.441 C 34.365 96.459,32.799 98.392,28.422 106.321 C 25.738 111.185,25.530 110.601,31.075 113.768 C 33.582 115.199,35.696 116.420,35.773 116.481 C 35.851 116.543,35.666 117.113,35.363 117.749 C 34.659 119.224,34.573 119.023,36.330 120.005 C 38.267 121.087,38.582 121.071,39.080 119.869 C 39.593 118.631,39.698 118.637,42.081 120.033 C 43.159 120.665,44.114 121.182,44.202 121.182 C 44.290 121.182,45.498 121.847,46.887 122.660 C 50.313 124.666,49.994 124.856,53.444 118.752 C 56.838 112.748,57.654 110.370,57.375 107.294 C 56.675 99.567,44.992 92.690,37.237 95.441 M43.496 101.472 C 48.262 103.112,51.884 106.402,51.887 109.096 C 51.888 110.277,49.790 114.881,48.797 115.875 C 48.427 116.245,44.258 114.477,43.073 113.447 C 42.842 113.246,43.381 112.088,44.496 110.395 C 45.958 108.175,45.970 108.244,43.924 107.070 C 41.938 105.931,42.074 105.854,40.329 109.113 C 39.772 110.152,39.144 111.002,38.932 111.002 C 38.641 111.002,34.575 108.480,33.881 107.869 C 33.717 107.725,34.412 106.479,36.001 104.065 C 38.155 100.793,39.835 100.212,43.496 101.472 M379.639 115.514 C 378.465 115.975,377.470 116.377,377.429 116.407 C 377.388 116.437,377.998 118.104,378.784 120.112 L 380.215 123.763 379.352 124.104 C 378.878 124.292,375.755 125.470,372.414 126.722 C 361.326 130.878,359.608 131.649,359.604 132.468 C 359.601 133.311,361.364 137.603,361.714 137.603 C 362.140 137.603,376.812 132.001,377.833 131.449 C 378.661 131.000,381.945 129.721,382.266 129.721 C 382.399 129.721,383.065 131.285,383.746 133.197 C 385.187 137.241,385.198 137.249,388.006 136.242 C 390.473 135.357,390.379 135.587,389.363 132.926 C 388.931 131.795,387.195 127.214,385.504 122.744 C 383.813 118.275,382.282 114.631,382.102 114.647 C 381.921 114.663,380.813 115.053,379.639 115.514 M186.904 126.450 C 187.695 126.849,189.035 127.681,189.882 128.298 L 191.422 129.420 193.413 127.955 C 200.076 123.049,204.629 125.531,204.195 133.832 C 204.082 135.993,204.144 136.947,204.397 136.949 C 205.152 136.956,208.399 138.664,209.729 139.754 C 213.746 143.045,212.171 147.668,206.164 150.221 L 204.096 151.100 204.204 154.614 C 204.450 162.626,199.871 164.738,193.074 159.748 L 191.467 158.569 189.012 160.211 C 182.406 164.630,178.387 162.361,178.707 154.394 L 178.839 151.123 176.495 150.093 C 168.968 146.785,168.941 141.244,176.436 137.773 L 178.720 136.715 178.769 132.972 C 178.859 126.106,181.705 123.824,186.904 126.450 M182.510 128.763 C 181.394 129.413,180.624 131.520,180.624 133.921 L 180.624 136.178 182.677 135.748 C 183.805 135.511,185.034 135.314,185.406 135.311 C 186.031 135.304,189.819 131.368,189.819 130.725 C 189.819 129.476,183.978 127.908,182.510 128.763 M195.790 128.906 C 195.191 129.167,194.271 129.686,193.745 130.060 L 192.788 130.741 194.653 132.940 C 196.480 135.095,196.562 135.147,198.690 135.508 C 199.884 135.711,201.185 135.980,201.580 136.105 C 202.263 136.322,202.299 136.239,202.297 134.423 C 202.292 129.298,199.784 127.171,195.790 128.906 M190.022 133.334 C 188.478 135.043,188.418 134.975,191.478 134.975 L 194.121 134.975 192.886 133.498 C 191.389 131.707,191.487 131.713,190.022 133.334 M21.002 133.452 C 12.716 135.687,10.228 149.498,16.997 155.685 C 23.343 161.485,34.374 161.264,38.651 155.251 C 41.956 150.604,42.981 140.089,40.412 137.189 C 40.017 136.744,29.797 133.945,29.563 134.218 C 29.115 134.739,26.255 145.597,26.507 145.818 C 26.927 146.185,30.852 147.177,31.152 146.991 C 31.303 146.897,31.761 145.580,32.169 144.063 L 32.910 141.305 34.271 141.703 C 37.959 142.781,36.698 150.307,32.407 152.821 C 28.318 155.218,20.208 152.129,18.715 147.606 C 17.535 144.032,20.432 139.245,23.774 139.245 C 24.733 139.245,24.831 138.976,25.125 135.550 L 25.343 133.005 23.920 133.027 C 23.137 133.039,21.824 133.231,21.002 133.452 M185.231 139.966 C 184.142 141.808,183.251 143.511,183.251 143.751 C 183.251 144.395,185.333 148.393,186.506 150.000 L 187.525 151.396 191.470 151.396 L 195.416 151.396 196.969 149.012 C 197.823 147.701,198.812 145.983,199.165 145.194 L 199.808 143.760 198.732 141.746 C 198.140 140.637,197.147 139.030,196.526 138.174 L 195.396 136.617 191.303 136.617 L 187.211 136.617 185.231 139.966 M182.232 137.710 L 181.048 138.095 181.535 139.819 C 181.947 141.278,182.594 142.169,182.594 141.278 C 182.594 141.132,183.101 140.171,183.720 139.143 C 184.982 137.048,184.801 136.874,182.232 137.710 M199.219 139.491 C 199.890 140.710,200.484 141.765,200.539 141.835 C 200.688 142.027,201.241 140.456,201.488 139.140 C 201.700 138.014,201.669 137.969,200.443 137.629 C 197.938 136.933,197.868 137.040,199.219 139.491 M177.833 139.312 C 173.450 141.521,172.695 145.004,176.068 147.448 C 177.319 148.354,179.268 149.295,179.405 149.059 C 179.446 148.990,179.870 147.808,180.348 146.433 L 181.217 143.933 180.339 141.445 C 179.258 138.383,179.413 138.515,177.833 139.312 M202.528 141.259 L 201.607 143.930 202.503 146.431 C 202.995 147.807,203.445 148.993,203.502 149.066 C 203.789 149.435,206.413 147.833,207.560 146.588 C 209.758 144.205,209.207 142.058,205.842 139.883 C 203.320 138.253,203.605 138.134,202.528 141.259 M193.957 141.346 C 196.888 144.277,193.631 149.056,189.934 147.251 C 186.183 145.419,187.396 140.235,191.576 140.231 C 192.577 140.230,193.073 140.463,193.957 141.346 M385.386 143.035 C 381.954 143.831,377.804 144.793,376.163 145.172 C 368.266 146.997,365.647 151.426,367.645 159.579 C 369.276 166.234,372.873 168.339,380.296 166.983 C 385.727 165.990,385.252 165.920,386.371 167.880 C 388.221 171.118,390.887 171.836,396.405 170.581 C 398.971 169.998,398.899 170.152,398.149 166.833 L 397.612 164.455 396.131 164.658 C 392.525 165.152,392.040 165.421,392.177 166.852 C 392.330 168.461,391.430 168.629,389.837 167.288 C 387.678 165.471,387.753 165.387,392.502 164.335 C 395.048 163.770,396.867 163.203,396.968 162.942 C 397.160 162.442,396.057 157.307,395.757 157.307 C 395.650 157.307,391.705 158.192,386.991 159.273 C 377.309 161.494,375.764 161.669,374.452 160.695 C 372.354 159.137,371.868 154.659,373.608 152.919 C 374.697 151.829,375.273 151.654,385.107 149.433 C 389.694 148.397,393.512 147.484,393.591 147.406 C 393.713 147.283,393.495 146.147,392.604 142.282 C 392.391 141.358,392.800 141.316,385.386 143.035 M200.077 146.871 C 199.876 147.283,199.267 148.377,198.723 149.302 L 197.735 150.986 199.688 150.493 C 201.817 149.957,201.937 149.749,201.269 147.750 C 200.748 146.193,200.498 146.008,200.077 146.871 M181.537 148.116 C 180.925 150.027,181.078 150.213,183.597 150.616 L 185.010 150.842 184.341 149.723 C 183.972 149.108,183.397 148.124,183.062 147.537 C 182.262 146.135,182.157 146.175,181.537 148.116 M180.624 153.834 C 180.624 158.971,183.062 160.705,187.399 158.653 C 190.004 157.421,190.100 157.205,188.722 155.680 C 188.089 154.979,187.330 154.038,187.036 153.588 C 186.610 152.939,186.047 152.693,184.301 152.392 C 183.091 152.184,181.769 151.933,181.363 151.834 C 180.653 151.660,180.624 151.738,180.624 153.834 M198.851 152.248 C 196.436 152.719,196.359 152.776,193.755 156.017 L 192.812 157.191 194.642 158.300 C 199.201 161.063,202.292 159.170,202.297 153.612 C 202.299 151.456,202.503 151.537,198.851 152.248 M189.778 154.269 C 190.419 155.037,191.103 155.665,191.298 155.665 C 191.493 155.665,192.270 155.037,193.023 154.269 L 194.393 152.874 191.502 152.874 L 188.612 152.874 189.778 154.269 M362.562 156.893 C 361.388 157.164,360.366 157.442,360.291 157.510 C 360.178 157.613,361.232 162.860,361.422 163.144 C 361.499 163.259,366.821 162.024,366.993 161.852 C 367.123 161.722,366.752 159.840,366.147 157.553 C 365.778 156.162,365.745 156.156,362.562 156.893 M9.079 164.614 C 8.619 167.208,8.476 169.131,8.743 169.149 C 8.901 169.159,12.652 169.657,17.077 170.255 L 25.123 171.342 23.481 172.075 C 22.578 172.478,20.361 173.517,18.555 174.384 C 16.749 175.250,13.571 176.722,11.494 177.654 C 9.417 178.586,7.544 179.525,7.331 179.740 C 6.720 180.358,6.368 185.550,6.936 185.552 C 7.185 185.552,13.045 186.291,19.959 187.194 C 26.872 188.096,32.803 188.834,33.139 188.834 C 33.684 188.834,34.872 183.827,34.423 183.420 C 34.330 183.336,30.540 182.813,21.078 181.580 L 18.017 181.181 22.063 179.416 C 27.475 177.054,27.837 176.887,32.097 174.787 C 36.211 172.758,36.090 172.928,36.223 168.976 L 36.289 167.017 29.721 166.145 C 6.588 163.074,9.316 163.277,9.079 164.614 M127.750 177.645 C 127.750 183.198,128.689 185.577,132.259 189.072 C 144.901 201.449,160.004 210.379,179.310 216.893 C 182.291 217.899,185.025 218.861,185.386 219.032 C 187.649 220.103,193.937 221.755,202.791 223.605 C 223.279 227.886,232.376 230.697,240.887 235.375 C 257.258 244.374,266.410 259.169,266.490 276.765 L 266.502 279.475 268.931 279.475 L 271.359 279.475 271.173 274.466 C 270.995 269.653,270.465 265.917,269.414 262.069 C 268.675 259.363,267.265 255.501,267.017 255.501 C 266.897 255.501,266.618 255.001,266.397 254.390 C 264.326 248.664,251.842 235.106,247.317 233.670 C 246.941 233.551,246.634 233.315,246.634 233.147 C 246.634 232.979,246.506 232.841,246.350 232.841 C 246.195 232.841,244.700 232.080,243.030 231.151 C 235.677 227.059,229.991 225.088,216.092 221.815 C 210.402 220.475,204.860 219.094,203.777 218.747 C 202.693 218.400,200.503 217.809,198.910 217.434 C 178.620 212.647,158.701 204.138,147.455 195.452 C 140.171 189.827,132.802 182.682,130.049 178.579 C 128.336 176.025,127.750 175.787,127.750 177.645 M372.632 189.304 C 372.512 189.617,372.414 190.873,372.414 192.094 L 372.414 194.316 376.601 194.529 C 378.904 194.647,382.266 194.754,384.072 194.767 C 388.724 194.802,388.921 194.954,386.444 196.594 C 384.118 198.134,381.060 199.904,377.011 202.053 C 371.679 204.884,372.194 204.305,371.997 207.700 C 371.902 209.335,371.851 210.703,371.885 210.740 C 371.989 210.855,399.173 211.762,399.287 211.655 C 399.346 211.598,399.420 210.320,399.451 208.814 L 399.507 206.076 394.089 205.875 C 391.108 205.764,387.340 205.647,385.714 205.615 C 382.802 205.557,382.773 205.549,383.744 205.033 C 386.553 203.540,396.912 197.552,397.224 197.241 C 397.423 197.042,398.129 196.588,398.793 196.231 L 400.000 195.581 400.000 192.588 L 400.000 189.595 392.365 189.377 C 388.165 189.256,382.056 189.063,378.790 188.946 C 373.343 188.752,372.832 188.782,372.632 189.304 M129.392 190.825 C 129.392 191.621,132.623 216.154,132.893 217.406 C 132.990 217.857,133.100 218.596,133.137 219.048 C 133.174 219.499,133.293 220.090,133.402 220.361 C 133.511 220.632,134.219 225.657,134.975 231.527 C 137.062 247.738,139.756 267.510,140.699 273.545 C 141.164 276.515,141.544 279.065,141.544 279.210 C 141.544 279.356,168.979 279.475,202.510 279.475 L 263.477 279.475 263.282 274.466 C 262.736 260.411,256.828 248.617,247.126 242.214 C 246.042 241.499,244.863 240.643,244.505 240.312 C 239.737 235.905,225.483 230.893,206.897 227.089 C 194.974 224.649,178.678 220.121,176.847 218.739 C 176.667 218.603,175.041 217.930,173.235 217.243 C 155.518 210.505,144.219 203.677,131.523 192.036 C 129.778 190.436,129.392 190.217,129.392 190.825 M6.183 192.994 C 5.259 193.150,5.186 194.043,5.779 197.947 C 6.083 199.952,11.494 199.365,11.494 197.328 C 11.494 195.927,11.724 195.821,13.153 196.560 C 14.440 197.226,14.378 197.486,12.753 198.218 C 4.070 202.134,4.121 217.345,12.833 221.784 C 21.570 226.237,32.661 221.775,34.531 213.054 C 36.596 203.424,30.219 196.050,20.033 196.289 L 17.241 196.354 16.585 195.331 C 15.154 193.102,11.036 192.177,6.183 192.994 M25.378 203.546 C 31.502 206.255,30.545 214.274,23.860 216.259 C 15.885 218.628,9.216 213.239,12.347 206.956 C 14.184 203.270,20.825 201.532,25.378 203.546 M2.385 209.295 L 0.007 210.673 0.007 212.644 C 0.007 215.255,0.329 217.084,0.782 217.050 C 1.910 216.967,5.911 211.722,5.911 210.326 C 5.911 207.457,5.674 207.387,2.385 209.295 M371.483 217.323 C 371.302 218.181,371.053 219.572,370.930 220.413 L 370.706 221.943 372.463 222.289 C 373.429 222.479,375.988 222.943,378.149 223.320 C 382.924 224.152,382.482 223.519,381.635 228.311 C 380.630 233.995,380.834 233.601,379.032 233.348 C 377.455 233.127,370.823 231.962,369.574 231.687 C 368.932 231.545,368.835 231.731,368.498 233.746 C 368.295 234.964,368.051 236.344,367.957 236.813 C 367.793 237.631,367.867 237.678,369.854 238.015 C 378.296 239.444,383.892 240.465,384.729 240.727 C 385.271 240.897,386.232 241.116,386.864 241.214 C 387.496 241.312,389.532 241.706,391.388 242.089 C 395.373 242.911,394.949 243.165,395.574 239.585 C 396.183 236.091,396.732 236.582,391.087 235.569 C 388.493 235.104,386.259 234.624,386.123 234.503 C 385.930 234.331,387.364 225.334,387.626 225.072 C 387.660 225.039,389.608 225.367,391.955 225.803 C 398.178 226.957,397.837 227.032,398.320 224.384 C 398.542 223.165,398.799 221.862,398.890 221.489 C 399.043 220.863,398.798 220.768,395.669 220.238 C 393.806 219.923,391.152 219.381,389.770 219.034 C 387.398 218.438,373.026 215.764,372.198 215.764 C 371.985 215.764,371.663 216.466,371.483 217.323 M13.629 228.130 C 9.004 229.106,8.482 229.304,8.671 230.009 C 8.773 230.392,9.029 231.569,9.239 232.623 C 9.704 234.957,9.850 235.022,12.979 234.285 L 15.471 233.697 15.260 232.448 C 14.970 230.731,16.281 230.665,17.931 232.315 C 19.521 233.906,19.500 233.923,14.696 234.992 C 10.511 235.924,10.346 235.992,10.374 236.782 C 10.419 238.066,11.279 241.851,11.573 242.060 C 11.924 242.310,15.107 241.648,15.107 241.325 C 15.107 241.185,15.299 241.145,15.535 241.236 C 15.770 241.326,16.472 241.190,17.095 240.932 C 17.998 240.559,25.656 238.795,30.262 237.899 C 34.532 237.068,36.730 245.115,32.789 247.153 C 31.866 247.631,24.634 249.425,17.620 250.916 C 15.628 251.340,13.985 251.861,13.894 252.098 C 13.769 252.425,14.688 257.293,14.957 257.726 C 14.988 257.775,16.292 257.517,17.855 257.153 C 19.419 256.788,21.841 256.257,23.239 255.973 C 39.232 252.717,41.788 250.365,39.924 240.620 C 38.408 232.698,34.071 230.487,24.569 232.791 L 22.044 233.404 21.623 232.383 C 20.291 229.151,17.024 227.413,13.629 228.130 M365.552 245.498 C 364.621 248.870,363.824 248.205,371.264 250.262 C 374.696 251.211,380.597 252.851,384.376 253.905 C 388.156 254.960,391.312 255.760,391.389 255.683 C 391.615 255.456,393.077 250.110,392.948 249.981 C 392.716 249.750,367.309 242.693,366.707 242.693 C 366.497 242.693,365.977 243.955,365.552 245.498 M361.760 256.732 C 360.880 259.035,359.903 261.658,359.590 262.562 C 359.276 263.465,358.339 265.954,357.507 268.094 C 355.761 272.584,355.712 272.268,358.306 273.213 C 361.222 274.277,360.634 275.118,364.605 264.204 C 366.258 259.659,365.890 259.901,369.230 261.160 C 372.636 262.444,372.576 261.617,369.787 268.801 C 368.524 272.053,367.491 274.811,367.490 274.930 C 367.486 275.314,372.130 276.936,372.386 276.640 C 372.521 276.483,373.640 273.695,374.872 270.443 C 376.104 267.192,377.126 264.512,377.144 264.488 C 377.161 264.464,378.301 264.875,379.677 265.402 L 382.179 266.361 380.084 271.791 C 378.932 274.778,377.759 277.669,377.477 278.214 C 377.195 278.759,377.030 279.377,377.111 279.586 C 377.265 279.986,381.819 281.686,382.045 281.429 C 382.270 281.174,388.720 264.251,388.951 263.311 C 389.251 262.087,389.057 261.985,379.803 258.516 C 375.468 256.892,370.170 254.883,368.030 254.054 C 365.890 253.224,363.964 252.545,363.749 252.545 C 363.535 252.545,362.640 254.429,361.760 256.732 M40.020 257.061 C 37.474 260.973,36.326 263.108,35.776 264.953 L 35.357 266.360 34.345 265.381 C 31.212 262.348,26.228 262.710,22.872 266.213 C 20.583 268.602,20.393 271.547,22.283 275.369 C 23.789 278.415,27.586 286.981,27.586 287.332 C 27.586 288.007,28.321 288.035,29.648 287.410 C 30.410 287.051,31.921 286.360,33.005 285.875 C 34.089 285.389,35.049 284.884,35.140 284.752 C 35.301 284.516,42.622 281.132,47.126 279.211 C 50.892 277.605,53.202 276.484,53.202 276.263 C 53.202 275.349,50.706 270.914,50.266 271.047 C 49.984 271.133,47.704 272.104,45.199 273.204 C 39.722 275.610,40.220 275.587,39.550 273.464 C 39.014 271.761,39.018 271.689,39.739 270.262 C 40.859 268.045,44.055 262.647,44.686 261.905 C 45.784 260.614,45.729 259.962,44.264 256.855 C 42.523 253.164,42.557 253.162,40.020 257.061 M169.130 260.011 L 169.130 263.536 172.665 260.011 L 176.201 256.486 178.905 256.486 C 182.269 256.486,182.284 256.400,178.325 259.886 C 174.367 263.371,174.347 262.419,178.489 267.965 C 182.618 273.492,182.574 273.236,179.392 273.229 L 176.847 273.223 174.384 269.469 L 171.921 265.716 170.525 267.081 C 169.136 268.440,169.130 268.456,169.130 270.840 L 169.130 273.235 166.995 273.235 L 164.860 273.235 164.860 264.860 L 164.860 256.486 166.995 256.486 L 169.130 256.486 169.130 260.011 M187.849 259.770 L 187.849 263.054 191.121 263.054 L 194.393 263.054 194.487 259.852 L 194.581 256.650 196.634 256.552 L 198.686 256.455 198.686 264.860 L 198.686 273.266 196.634 273.168 L 194.581 273.071 194.488 269.540 L 194.395 266.010 191.122 266.010 L 187.849 266.010 187.849 269.622 L 187.849 273.235 185.714 273.235 L 183.580 273.235 183.580 264.860 L 183.580 256.486 185.714 256.486 L 187.849 256.486 187.849 259.770 M216.028 258.046 L 215.928 259.606 213.389 259.702 L 210.851 259.798 210.762 266.434 L 210.673 273.071 208.539 273.071 L 206.404 273.071 206.315 266.434 L 206.226 259.798 203.688 259.702 L 201.149 259.606 201.049 258.046 L 200.949 256.486 208.539 256.486 L 216.128 256.486 216.028 258.046 M225.604 261.576 L 229.064 266.502 229.155 261.494 L 229.245 256.486 231.207 256.486 L 233.169 256.486 233.169 264.860 L 233.169 273.235 231.070 273.235 L 228.972 273.235 225.496 268.096 L 222.021 262.956 221.930 268.013 L 221.839 273.071 219.951 273.169 L 218.062 273.268 218.062 264.861 L 218.062 256.455 220.104 256.552 L 222.145 256.650 225.604 261.576 M388.566 266.585 C 387.265 269.149,387.069 270.497,387.839 271.578 C 388.675 272.753,388.526 273.053,386.903 273.466 C 385.801 273.747,385.329 274.499,384.422 277.422 C 384.131 278.359,384.386 278.362,388.282 277.467 L 391.301 276.774 392.229 274.325 L 393.158 271.876 391.242 268.948 C 389.211 265.843,389.025 265.679,388.566 266.585 M31.463 269.812 C 31.870 270.096,32.844 271.611,33.628 273.178 C 35.815 277.550,35.817 277.320,33.597 278.433 C 30.010 280.232,30.193 280.372,27.557 273.792 C 26.326 270.720,28.947 268.049,31.463 269.812 M353.293 276.678 C 352.878 277.126,352.170 278.172,351.720 279.002 L 350.903 280.512 351.888 281.304 C 352.430 281.739,353.719 282.547,354.753 283.098 C 355.787 283.650,356.821 284.284,357.052 284.506 C 357.282 284.729,359.097 285.978,361.084 287.280 L 364.696 289.649 354.924 289.652 L 345.152 289.655 343.650 291.998 C 341.848 294.809,341.281 294.078,349.002 298.896 C 359.949 305.726,361.070 306.438,363.194 307.912 C 365.701 309.650,365.639 309.659,366.888 307.379 C 367.430 306.391,368.008 305.443,368.173 305.271 C 368.338 305.099,368.473 304.778,368.473 304.557 C 368.473 304.122,356.432 296.248,355.714 296.213 C 355.597 296.207,355.205 295.971,354.844 295.688 C 354.245 295.218,355.076 295.193,364.228 295.403 L 374.269 295.633 375.640 293.446 C 377.479 290.514,377.610 290.760,372.496 287.521 C 370.012 285.948,367.366 284.196,366.615 283.628 C 364.576 282.084,358.341 278.159,355.595 276.691 L 354.048 275.864 353.293 276.678 M50.739 290.634 C 46.765 293.136,42.691 295.691,41.686 296.311 L 39.858 297.439 37.801 294.204 C 36.670 292.425,35.655 290.969,35.546 290.969 C 35.179 290.969,31.210 293.430,31.204 293.661 C 31.201 293.787,32.771 296.374,34.693 299.408 C 36.615 302.443,39.150 306.528,40.326 308.486 C 42.881 312.741,42.768 312.681,45.286 311.107 C 47.722 309.584,47.720 309.648,45.489 306.260 C 43.031 302.529,43.049 302.630,44.683 301.796 C 48.182 300.011,61.740 291.169,61.734 290.676 C 61.722 289.756,59.142 286.041,58.531 286.064 C 58.219 286.076,54.713 288.132,50.739 290.634 M159.934 298.044 C 152.730 300.053,148.932 308.754,151.509 317.342 C 153.536 324.095,160.993 327.699,168.695 325.648 L 170.395 325.195 172.093 326.339 C 173.732 327.442,175.693 328.407,176.297 328.407 C 176.612 328.407,178.982 324.725,178.982 324.237 C 178.982 324.074,178.502 323.765,177.915 323.550 C 177.328 323.335,176.359 322.860,175.762 322.493 L 174.677 321.827 175.360 320.867 C 178.944 315.834,178.362 305.778,174.222 301.195 C 171.379 298.048,164.980 296.637,159.934 298.044 M190.061 297.875 C 178.270 300.838,177.083 320.818,188.440 325.144 C 193.436 327.048,201.088 325.988,205.665 322.760 L 206.568 322.123 206.568 316.398 L 206.568 310.673 200.328 310.673 L 194.089 310.673 194.089 313.300 L 194.089 315.928 197.209 315.928 L 200.328 315.928 200.328 317.368 C 200.328 319.985,194.683 321.781,191.294 320.241 C 183.849 316.859,186.041 302.813,194.017 302.795 C 196.285 302.789,199.851 304.961,199.674 306.240 C 199.539 307.214,200.671 307.343,203.413 306.667 C 206.616 305.876,206.653 305.815,205.459 303.284 C 203.333 298.776,196.302 296.306,190.061 297.875 M258.692 297.895 C 247.807 300.459,246.130 319.802,256.357 324.836 C 262.919 328.067,270.941 325.431,273.239 319.290 C 274.124 316.925,274.065 316.829,271.215 315.984 C 268.082 315.056,268.160 315.041,267.523 316.667 C 266.208 320.025,262.954 321.644,260.001 320.410 C 254.493 318.109,254.493 305.537,260.001 303.235 C 262.925 302.013,267.641 304.245,267.650 306.856 C 267.652 307.644,271.215 307.078,273.821 305.877 C 274.100 305.748,272.401 301.975,271.677 301.114 C 269.177 298.143,263.556 296.750,258.692 297.895 M97.537 303.941 L 97.537 310.016 96.223 310.016 L 94.910 310.016 94.910 311.987 L 94.910 313.957 96.223 313.957 L 97.537 313.957 97.537 319.904 L 97.537 325.850 105.016 325.733 L 112.495 325.616 114.786 324.466 C 122.938 320.376,123.085 303.225,115.004 299.046 C 113.387 298.210,110.126 297.870,103.695 297.868 L 97.537 297.865 97.537 303.941 M124.795 311.823 L 124.795 325.780 127.750 325.780 L 130.706 325.780 130.706 319.869 L 130.706 313.957 135.796 313.957 L 140.887 313.957 140.887 319.869 L 140.887 325.780 144.007 325.780 L 147.126 325.780 147.126 311.823 L 147.126 297.865 144.007 297.865 L 140.887 297.865 140.887 303.284 L 140.887 308.703 135.796 308.703 L 130.706 308.703 130.706 303.284 L 130.706 297.865 127.750 297.865 L 124.795 297.865 124.795 311.823 M223.317 311.823 L 223.317 325.780 226.437 325.780 L 229.557 325.780 229.557 319.869 L 229.557 313.957 234.483 313.957 L 239.409 313.957 239.409 319.869 L 239.409 325.780 242.529 325.780 L 245.649 325.780 245.649 311.823 L 245.649 297.865 242.529 297.865 L 239.409 297.865 239.409 303.284 L 239.409 308.703 234.483 308.703 L 229.557 308.703 229.557 303.284 L 229.557 297.865 226.437 297.865 L 223.317 297.865 223.317 311.823 M277.833 311.813 L 277.833 325.780 280.624 325.780 L 283.415 325.780 283.437 316.667 L 283.458 307.553 285.726 316.585 C 286.973 321.552,287.998 325.653,288.004 325.698 C 288.009 325.743,289.402 325.780,291.100 325.780 L 294.188 325.780 296.437 316.679 L 298.686 307.577 298.774 316.679 L 298.861 325.780 301.647 325.780 L 304.433 325.780 304.433 311.823 L 304.433 297.865 300.061 297.865 L 295.689 297.865 293.590 306.240 C 292.435 310.846,291.406 314.614,291.303 314.614 C 291.200 314.614,290.688 313.025,290.167 311.084 C 289.645 309.142,289.131 307.406,289.026 307.225 C 288.920 307.044,288.314 304.901,287.678 302.463 L 286.521 298.030 282.177 297.938 L 277.833 297.846 277.833 311.813 M167.908 303.881 C 171.101 305.752,172.480 312.474,170.535 316.688 L 169.805 318.269 167.712 317.098 C 164.979 315.570,164.390 315.588,163.553 317.228 C 162.633 319.032,162.710 319.429,164.122 320.175 L 165.353 320.825 164.039 320.832 C 159.938 320.855,157.499 317.621,157.492 312.151 C 157.484 304.547,162.393 300.649,167.908 303.881 M111.484 303.953 C 113.484 304.943,114.388 306.995,114.560 310.934 C 114.885 318.361,113.114 320.519,106.693 320.524 L 103.863 320.525 103.659 319.294 C 103.547 318.617,103.454 317.139,103.452 316.010 L 103.448 313.957 106.404 313.957 L 109.360 313.957 109.360 311.987 L 109.360 310.016 106.606 310.016 C 103.413 310.016,103.460 310.072,103.453 306.349 C 103.446 302.948,103.358 303.026,107.028 303.177 C 109.295 303.271,110.547 303.489,111.484 303.953 M210.181 315.599 L 210.181 318.555 215.435 318.555 L 220.690 318.555 220.690 315.599 L 220.690 312.644 215.435 312.644 L 210.181 312.644 210.181 315.599 " stroke="none" fill="#243c74" fill-rule="evenodd"></path><path id="path2" d="M189.751 130.441 C 190.055 130.744,189.977 131.022,189.407 131.673 L 188.670 132.512 189.569 131.720 C 190.384 131.002,190.373 130.049,189.549 130.049 C 189.445 130.049,189.536 130.226,189.751 130.441 M204.024 132.512 C 204.027 133.235,204.095 133.492,204.173 133.083 C 204.252 132.675,204.249 132.084,204.167 131.770 C 204.084 131.456,204.020 131.790,204.024 132.512 M191.164 131.773 C 191.241 131.819,191.894 132.373,192.614 133.005 L 193.924 134.154 192.793 132.923 C 192.170 132.245,191.518 131.691,191.342 131.691 C 191.167 131.691,191.087 131.728,191.164 131.773 M188.891 134.093 C 187.806 135.249,187.936 135.309,191.379 135.236 L 194.581 135.167 191.498 135.058 L 188.416 134.950 189.175 134.141 C 189.592 133.697,189.860 133.333,189.770 133.333 C 189.679 133.333,189.284 133.675,188.891 134.093 M187.932 144.007 C 187.935 144.729,188.003 144.986,188.081 144.577 C 188.160 144.169,188.157 143.578,188.075 143.264 C 187.992 142.950,187.928 143.284,187.932 144.007 M211.577 144.007 C 211.581 144.729,211.648 144.986,211.727 144.577 C 211.805 144.169,211.802 143.578,211.720 143.264 C 211.638 142.950,211.573 143.284,211.577 144.007 M192.529 151.622 C 192.845 151.705,193.362 151.705,193.678 151.622 C 193.994 151.540,193.736 151.472,193.103 151.472 C 192.471 151.472,192.213 151.540,192.529 151.622 M189.819 154.844 C 190.432 155.476,191.007 155.993,191.098 155.993 C 191.188 155.993,190.761 155.476,190.148 154.844 C 189.535 154.212,188.960 153.695,188.870 153.695 C 188.779 153.695,189.207 154.212,189.819 154.844 M204.030 155.337 C 204.030 156.149,204.094 156.482,204.173 156.076 C 204.251 155.669,204.251 155.004,204.173 154.598 C 204.094 154.191,204.030 154.524,204.030 155.337 M183.830 159.838 C 184.238 159.917,184.829 159.914,185.143 159.832 C 185.457 159.749,185.123 159.685,184.401 159.689 C 183.678 159.692,183.421 159.760,183.830 159.838 M197.783 159.832 C 198.099 159.915,198.617 159.915,198.933 159.832 C 199.249 159.750,198.990 159.682,198.358 159.682 C 197.726 159.682,197.467 159.750,197.783 159.832 M198.768 162.131 C 199.085 162.214,199.602 162.214,199.918 162.131 C 200.234 162.049,199.975 161.981,199.343 161.981 C 198.711 161.981,198.452 162.049,198.768 162.131 M168.857 260.181 C 168.826 262.122,168.912 263.711,169.048 263.712 C 169.183 263.712,169.254 262.641,169.204 261.331 C 169.042 257.022,168.913 256.595,168.857 260.181 M194.865 259.934 C 194.866 261.741,194.921 262.438,194.988 261.483 C 195.055 260.529,195.054 259.051,194.986 258.199 C 194.919 257.347,194.865 258.128,194.865 259.934 M201.068 257.964 C 201.072 258.686,201.139 258.943,201.217 258.535 C 201.296 258.126,201.293 257.535,201.211 257.221 C 201.129 256.907,201.064 257.241,201.068 257.964 M215.853 258.128 C 215.853 258.941,215.917 259.273,215.995 258.867 C 216.074 258.461,216.074 257.796,215.995 257.389 C 215.917 256.983,215.853 257.315,215.853 258.128 M229.361 261.905 C 229.362 264.795,229.412 265.933,229.473 264.434 C 229.534 262.936,229.533 260.571,229.472 259.180 C 229.411 257.789,229.361 259.015,229.361 261.905 M232.917 264.761 L 232.841 272.872 231.117 272.993 L 229.392 273.113 231.127 273.174 C 233.333 273.251,233.199 273.843,233.087 264.526 L 232.992 256.650 232.917 264.761 M179.782 258.210 L 178.818 259.278 179.885 258.313 C 180.472 257.782,180.952 257.302,180.952 257.246 C 180.952 256.992,180.681 257.215,179.782 258.210 M210.255 266.075 L 210.181 272.872 208.456 272.993 L 206.732 273.113 208.467 273.174 C 210.658 273.251,210.542 273.685,210.427 265.836 L 210.330 259.278 210.255 266.075 M187.741 265.917 C 187.653 266.058,189.188 266.128,191.152 266.072 L 194.723 265.969 194.816 269.520 L 194.910 273.071 196.716 273.102 L 198.522 273.133 196.809 273.003 L 195.096 272.873 195.003 269.359 L 194.910 265.846 191.405 265.753 C 189.478 265.702,187.829 265.775,187.741 265.917 M169.345 267.596 C 168.946 268.036,168.801 268.820,168.801 270.534 L 168.801 272.872 167.157 273.000 L 165.514 273.128 167.240 273.099 L 168.966 273.071 169.063 270.616 C 169.131 268.933,169.327 267.978,169.689 267.578 C 169.979 267.257,170.143 266.995,170.053 266.995 C 169.962 266.995,169.644 267.265,169.345 267.596 M181.430 272.554 C 181.624 272.867,181.111 272.936,179.213 272.852 C 177.855 272.791,176.813 272.853,176.897 272.989 C 176.981 273.124,178.067 273.235,179.310 273.235 C 181.475 273.235,182.384 272.892,181.564 272.386 C 181.314 272.232,181.268 272.291,181.430 272.554 M184.980 273.142 C 185.479 273.218,186.218 273.216,186.622 273.138 C 187.026 273.060,186.617 272.998,185.714 273.000 C 184.811 273.003,184.481 273.067,184.980 273.142 M219.134 273.142 C 219.633 273.218,220.372 273.216,220.776 273.138 C 221.180 273.060,220.772 272.998,219.869 273.000 C 218.966 273.003,218.635 273.067,219.134 273.142 " stroke="none" fill="#9ca4bc" fill-rule="evenodd"></path><path id="path3" d="M166.098 256.724 C 166.688 256.797,167.575 256.796,168.068 256.721 C 168.562 256.646,168.079 256.586,166.995 256.588 C 165.911 256.590,165.508 256.651,166.098 256.724 M177.595 256.727 C 178.367 256.796,179.550 256.795,180.222 256.725 C 180.895 256.654,180.263 256.597,178.818 256.599 C 177.373 256.600,176.822 256.658,177.595 256.727 M183.813 256.691 C 183.500 257.004,183.512 272.826,183.826 273.020 C 183.961 273.104,184.030 269.492,183.979 264.994 L 183.886 256.814 185.691 256.814 L 187.497 256.814 187.610 259.935 L 187.722 263.056 187.704 259.853 L 187.685 256.650 185.865 256.554 C 184.865 256.501,183.941 256.562,183.813 256.691 M195.983 256.724 C 196.573 256.797,197.460 256.796,197.953 256.721 C 198.447 256.646,197.964 256.586,196.880 256.588 C 195.796 256.590,195.393 256.651,195.983 256.724 M204.844 256.731 C 206.876 256.789,210.201 256.789,212.233 256.731 C 214.265 256.674,212.603 256.626,208.539 256.626 C 204.475 256.626,202.812 256.674,204.844 256.731 M218.210 256.903 C 218.122 257.132,218.093 260.864,218.145 265.195 L 218.239 273.071 218.315 264.959 L 218.391 256.847 220.279 256.729 L 222.167 256.610 220.269 256.548 C 218.989 256.506,218.318 256.622,218.210 256.903 M230.296 256.721 C 230.792 256.797,231.605 256.797,232.102 256.721 C 232.599 256.646,232.192 256.584,231.199 256.584 C 230.205 256.584,229.799 256.646,230.296 256.721 M170.258 262.479 L 169.294 263.547 170.361 262.582 C 170.948 262.052,171.429 261.571,171.429 261.515 C 171.429 261.261,171.158 261.485,170.258 262.479 M187.519 269.689 C 187.429 271.623,187.473 273.088,187.615 272.945 C 187.758 272.801,187.831 271.219,187.777 269.429 L 187.681 266.174 187.519 269.689 " stroke="none" fill="#7c8cac" fill-rule="evenodd"></path><path id="path4" d="M182.512 125.683 C 182.919 125.762,183.584 125.762,183.990 125.683 C 184.397 125.605,184.064 125.541,183.251 125.541 C 182.438 125.541,182.106 125.605,182.512 125.683 M198.604 125.683 C 199.011 125.762,199.676 125.762,200.082 125.683 C 200.489 125.605,200.156 125.541,199.343 125.541 C 198.530 125.541,198.198 125.605,198.604 125.683 M180.372 133.990 C 180.372 134.622,180.439 134.881,180.522 134.565 C 180.605 134.249,180.605 133.732,180.522 133.415 C 180.439 133.099,180.372 133.358,180.372 133.990 M192.447 133.108 C 192.447 133.164,192.927 133.645,193.514 134.175 L 194.581 135.140 193.617 134.072 C 192.718 133.077,192.447 132.854,192.447 133.108 M189.901 136.530 C 190.759 136.598,192.163 136.598,193.021 136.530 C 193.879 136.463,193.177 136.407,191.461 136.407 C 189.745 136.407,189.044 136.463,189.901 136.530 M170.855 144.007 C 170.858 144.729,170.925 144.986,171.004 144.577 C 171.083 144.169,171.080 143.578,170.997 143.264 C 170.915 142.950,170.851 143.284,170.855 144.007 M177.011 148.292 C 177.011 148.533,179.022 149.467,179.317 149.363 C 179.477 149.307,179.024 149.013,178.310 148.711 C 177.596 148.408,177.011 148.220,177.011 148.292 M190.058 152.946 C 190.641 153.019,191.676 153.020,192.357 152.949 C 193.039 152.878,192.562 152.819,191.297 152.817 C 190.033 152.816,189.475 152.874,190.058 152.946 M180.372 154.023 C 180.372 154.655,180.439 154.914,180.522 154.598 C 180.605 154.282,180.605 153.764,180.522 153.448 C 180.439 153.132,180.372 153.391,180.372 154.023 M192.369 154.853 C 191.695 155.480,191.259 155.993,191.402 155.993 C 191.544 155.993,192.162 155.476,192.775 154.844 C 194.205 153.369,193.960 153.374,192.369 154.853 M165.004 264.860 C 165.004 269.557,165.050 271.432,165.106 269.028 C 165.162 266.624,165.162 262.782,165.106 260.490 C 165.049 258.197,165.003 260.164,165.004 264.860 M173.727 258.949 C 172.382 260.304,171.355 261.412,171.445 261.412 C 171.535 261.412,172.710 260.304,174.056 258.949 C 175.401 257.594,176.429 256.486,176.338 256.486 C 176.248 256.486,175.073 257.594,173.727 258.949 M194.557 256.923 C 194.465 257.163,194.434 258.677,194.488 260.289 L 194.587 263.218 194.748 259.852 C 194.908 256.512,194.880 256.081,194.557 256.923 M203.769 259.680 L 206.226 259.798 206.326 266.352 L 206.425 272.907 206.414 266.256 L 206.404 259.606 203.858 259.584 L 201.311 259.562 203.769 259.680 M210.440 266.307 C 210.387 270.083,210.456 273.104,210.591 273.020 C 210.727 272.936,210.837 269.927,210.837 266.333 L 210.837 259.798 213.383 259.686 L 215.928 259.574 213.231 259.508 L 210.534 259.442 210.440 266.307 M221.808 267.816 C 221.808 270.706,221.858 271.844,221.919 270.346 C 221.980 268.847,221.980 266.482,221.919 265.091 C 221.857 263.700,221.807 264.926,221.808 267.816 M194.472 269.357 C 194.442 271.288,194.528 272.937,194.663 273.021 C 194.799 273.105,194.870 272.043,194.821 270.659 C 194.664 266.247,194.529 265.741,194.472 269.357 M169.930 267.406 L 168.966 268.473 170.033 267.508 C 170.620 266.978,171.100 266.498,171.100 266.441 C 171.100 266.187,170.829 266.411,169.930 267.406 M266.451 276.683 C 266.452 278.128,266.510 278.678,266.579 277.906 C 266.649 277.134,266.648 275.951,266.577 275.279 C 266.506 274.606,266.450 275.238,266.451 276.683 " stroke="none" fill="#5d6d94" fill-rule="evenodd"></path></g></svg>